<?xml version="1.0" encoding="utf-8"?><svg viewBox="0 0 202 48" xmlns="http://www.w3.org/2000/svg" xmlns:xlink="http://www.w3.org/1999/xlink"><style>:root>svg{display:none}:root>svg:target{display:block}</style><svg viewBox="0 0 12 12" id="arrow" xmlns="http://www.w3.org/2000/svg"><path fill-rule="evenodd" clip-rule="evenodd" d="M5.584 9.91a.31.31 0 01-.084-.218.328.328 0 01.084-.218L8.81 6 5.584 2.526a.31.31 0 01-.084-.218.329.329 0 01.084-.218.268.268 0 01.404 0l3.428 3.692A.31.31 0 019.5 6a.328.328 0 01-.084.218L5.988 9.91a.268.268 0 01-.404 0z"/><path fill-rule="evenodd" clip-rule="evenodd" d="M5.584 9.91a.31.31 0 01-.084-.218.328.328 0 01.084-.218L8.81 6 5.584 2.526a.31.31 0 01-.084-.218.329.329 0 01.084-.218.268.268 0 01.404 0l3.428 3.692A.31.31 0 019.5 6a.328.328 0 01-.084.218L5.988 9.91a.268.268 0 01-.404 0z"/><path fill-rule="evenodd" clip-rule="evenodd" d="M5.584 9.91a.31.31 0 01-.084-.218.328.328 0 01.084-.218L8.81 6 5.584 2.526a.31.31 0 01-.084-.218.329.329 0 01.084-.218.268.268 0 01.404 0l3.428 3.692A.31.31 0 019.5 6a.328.328 0 01-.084.218L5.988 9.91a.268.268 0 01-.404 0z"/><path fill-rule="evenodd" clip-rule="evenodd" d="M5.584 9.91a.31.31 0 01-.084-.218.328.328 0 01.084-.218L8.81 6 5.584 2.526a.31.31 0 01-.084-.218.329.329 0 01.084-.218.268.268 0 01.404 0l3.428 3.692A.31.31 0 019.5 6a.328.328 0 01-.084.218L5.988 9.91a.268.268 0 01-.404 0z"/></svg><svg viewBox="0 0 180 48" id="carboma" xmlns="http://www.w3.org/2000/svg"><g clip-path="url(#bclip0_1526_2793)"><path fill-rule="evenodd" clip-rule="evenodd" d="M24.484 21.919L28.213 13h-6.661c-3.31.044-7.164.177-10.683 1.457C2.7 17.415.732 22.404.23 24.435c-.88 3.709.838 7.638 4.105 9.36 2.89 1.501 6.2 1.325 8.463.927 2.974-.53 5.362-1.59 7.08-3.135a2.98 2.98 0 01.076-.07c.232-.208.9-.81.97-1.033l.336-1.28c-2.472.97-4.567 1.456-6.494 1.545-1.298.044-3.728-.089-5.069-1.766-2.136-2.605-.25-6.49 1.425-8.345 1.885-2.075 5.446-3.532 9.426-3.93l-2.179 5.21h6.116zm56.22 1.5c-1.048-.308-2.179-.309-3.268-.309H75.34l-1.508 3.577h3.31c-.629 2.252-1.802 3.576-3.687 4.062-1.76.441-3.31.265-3.31.265l6.326-15.806h-6.41s-5.236 12.847-5.822 14.481c-1.131 3.135 1.508 4.724 4.147 4.9l.752.049c1.302.084 1.302.084 2.85.084 6.075 0 11.48-4.37 11.521-7.903.042-1.722-1.089-2.914-2.806-3.4zm22.956 3.621c-.083-.883-.418-1.722-1.005-2.384-.67-.795-2.011-1.678-4.524-1.678h-1.76l-.763-.001c-2.764-.006-4.677-.011-6.484.84-2.64 1.236-4.943 3.576-4.65 6.887.126 1.28.838 2.473 1.885 3.135 1.09.663 2.514.972 3.728.972h2.606c2.734.007 4.473.011 6.317-.84 1.592-.75 3.142-1.898 3.98-3.575a5.835 5.835 0 00.67-3.356zm-6.577 2.252c-.418.662-1.047 1.192-1.717 1.457-1.006.441-2.095.53-3.184.53h-1.718v-.619c0-1.103.168-1.589.545-2.207.88-1.325 2.304-1.81 3.77-1.943l.105-.01c.378-.041.727-.078 1.11-.078h1.466s0 1.06-.041 1.501c.083.53-.084.971-.336 1.369zm32.634 5.342c-.586 0-1.131-.22-1.675-.662-.545-.442-.754-.928-.754-1.501 0-.133.042-.31.083-.486.126-.398 1.634-3.974 1.634-3.974l-6.912 5.034c-1.676 1.192-3.1 1.81-4.273 1.81-1.089 0-1.801-.177-2.22-.618-.252-.265-.377-.574-.377-1.016 0-.353.084-.75.293-1.192l1.718-4.018-8.588 6.623h-5.404l4.775-11.48h6.368l-2.388 5.652 6.116-4.106c1.467-1.06 2.975-1.545 4.902-1.545h2.89c-.125.33-.487 1.209-.713 1.757l-.167.406-1.549 3.709 6.325-4.371c1.425-1.06 3.016-1.59 4.734-1.59.964 0 2.472.089 2.891.133l-4.567 11.435h-3.142zm-90.403 0l4.818-11.48H34.32c-2.808-.007-4.97-.012-6.778.84-2.639 1.236-4.901 3.576-4.608 6.887.084.883.503 1.766 1.047 2.473.88 1.103 2.765 1.589 4.106 1.633 2.053 0 4.776-.795 6.032-2.472-.167.839.336 1.545.922 1.854.602.317 1.304.314 2.23.31h.325c-.041-.045 1.634-.045 1.718-.045zm-4.86-3.576c-3.225 1.06-4.985.441-5.32-.486-.293-.706-.042-1.369.335-1.943.964-1.412 2.388-1.986 4.944-1.986h1.885l-1.843 4.415zm17.847-3.09l5.907-4.813h6.325l-2.387 5.784h-5.991l.838-1.987-6.116 5.21-1.215 2.472h-6.368l4.65-11.48h6.326l-1.97 4.813zM159 23.154l-4.818 11.479c-.083 0-1.801 0-1.717.044l-.327.001c-.925.004-1.627.007-2.229-.31-.586-.309-1.089-1.015-.921-1.854-1.257 1.677-3.98 2.472-6.033 2.472-1.34-.044-3.225-.53-4.105-1.633-.545-.707-.964-1.59-1.048-2.473-.293-3.311 1.969-5.651 4.609-6.887 1.808-.852 3.969-.847 6.776-.84H159zm-14.997 7.417c.335.927 2.094 1.545 5.32.486l1.843-4.415h-1.885c-2.556 0-3.98.574-4.943 1.986-.377.574-.629 1.237-.335 1.943z"/></g><defs><clipPath id="bclip0_1526_2793"><path transform="translate(0 13)" d="M0 0h159v22H0z"/></clipPath></defs></svg><svg viewBox="0 0 180 48" id="dazzl" xmlns="http://www.w3.org/2000/svg"><g clip-path="url(#cclip0_1526_2808)"><path fill-rule="evenodd" clip-rule="evenodd" d="M17.244 36H0V12h17.277c3.825 0 6.911 3.067 6.911 6.867v10.266A6.93 6.93 0 0117.244 36zm-7.85-9.333h4.26c.637 0 1.14-.5 1.14-1.134v-3.1c0-.633-.503-1.133-1.14-1.133h-4.26v5.367zM33.446 12c-3.824 0-6.91 3.067-6.91 6.833V36h9.393v-2.867h5.401V36h9.393V12H33.447zm2.483 12.567V22.4c0-.6.503-1.1 1.107-1.1h4.26v3.267H35.93zM60.722 21.3L52.838 36h24.457v-9.3h-7.616L77.563 12H53.14v9.3h7.582zM78.1 36l7.884-14.7h-7.582V12h24.423l-7.884 14.7h7.615V36H78.1zm46.9 0v-9.3h-8.555V12h-11.473v24H125z"/></g><defs><clipPath id="cclip0_1526_2808"><path transform="translate(0 12)" d="M0 0h125v24H0z"/></clipPath></defs></svg><svg viewBox="0 0 17 14" id="email-icon" xmlns="http://www.w3.org/2000/svg"><path d="M2 1a1 1 0 00-1 1v10a1 1 0 001 1h13a1 1 0 001-1V2a1 1 0 00-1-1H2zm5.9 7.175a1.005 1.005 0 001.2 0l.733-.55L15 11.5v.5H2v-.5l5.167-3.875.733.55zm.6-.8L2 2.5V2h13v.5L8.5 7.375zM2 3.75L6.333 7 2 10.25v-6.5zm13 6.5L10.667 7 15 3.75v6.5z"/><path fill-rule="evenodd" clip-rule="evenodd" d="M2 1.1a.9.9 0 00-.9.9v10a.9.9 0 00.9.9h13a.9.9 0 00.9-.9V2a.9.9 0 00-.9-.9H2zM.9 2A1.1 1.1 0 012 .9h13A1.1 1.1 0 0116.1 2v10a1.1 1.1 0 01-1.1 1.1H2A1.1 1.1 0 01.9 12V2zm1-.1h13.2v.65L8.5 7.5 1.9 2.55V1.9zm.2.2v.35l6.4 4.8 6.4-4.8V2.1H2.1zm-.2 1.45L6.5 7l-4.6 3.45v-6.9zm13.2 0v6.9L10.5 7l4.6-3.45zm-13 .4v6.1L6.167 7 2.1 3.95zM10.833 7l4.067 3.05v-6.1L10.833 7zm-3.666.5l.793.595a.906.906 0 001.08 0l.793-.595 5.267 3.95v.65H1.9v-.65L7.167 7.5zm0 .25L2.1 11.55v.35h12.8v-.35l-5.067-3.8-.673.505a1.106 1.106 0 01-1.32 0l-.673-.505z"/></svg><svg viewBox="0 0 180 48" id="frosteco" xmlns="http://www.w3.org/2000/svg"><path fill-rule="evenodd" clip-rule="evenodd" d="M2.836 36.122h2.469V19.827h4.538v-2.275H5.307v-.374c0-3.837 3.303-3.903 4.038-3.903h.5V11h-.5c-4.106 0-6.509 2.546-6.509 6.178v.374H0v2.275h2.836v16.295zm9.311 0h2.469v-11c0-3.767 2.836-5.33 5.171-5.464v-2.511c-2.236-.07-4.238 1.087-5.24 3.089h-.067v-2.681h-2.336v18.567h.003zM30 17.11c-5.406 0-9.546 4.21-9.546 9.742 0 5.534 4.171 9.71 9.546 9.71 5.372 0 9.546-4.176 9.546-9.71 0-5.532-4.14-9.742-9.546-9.742zm0 2.275c4.106 0 7.075 3.258 7.075 7.47 0 4.208-2.97 7.435-7.075 7.435s-7.074-3.225-7.074-7.436c0-4.21 2.971-7.47 7.074-7.47zm11.65 11.272c0 3.089 1.77 5.908 5.572 5.908 3.738 0 5.873-2.511 5.873-5.908 0-3.498-2.57-4.447-4.739-5.16-1.702-.544-3.57-1.223-3.57-3.36 0-1.562 1-2.75 2.736-2.75 1.535 0 2.67 1.122 2.635 2.785h2.469c.034-2.851-2.036-5.06-5.039-5.06-3.302 0-5.273 2.31-5.273 5.23 0 3.529 2.87 4.55 4.773 5.194 1.736.61 3.537 1.257 3.537 3.53 0 1.662-1.1 3.224-3.204 3.224-2.202 0-3.472-1.732-3.302-3.633h-2.469zm16.416 5.465h2.469V19.827h4.238v-2.275h-4.238V11h-2.469v6.552h-3.803v2.275h3.803v16.295zm27.399-8.385c.034-4.786-2.469-10.625-9.38-10.625-6.206 0-9.51 5.16-9.51 9.742 0 5.569 4.138 9.71 9.51 9.71 4.14 0 7.477-2.478 8.944-6.483h-2.57c-1.134 2.546-3.503 4.211-6.373 4.211-3.837 0-6.642-2.85-6.942-6.552h16.32v-.003zm-16.318-2.275c.6-3.53 3.438-6.077 6.941-6.077 3.17 0 6.009 2.31 6.707 6.077H69.147zm35.007 5.227c-1.3 2.341-3.636 3.598-6.14 3.598-3.97 0-7.276-3.259-7.276-7.502 0-4.107 3.037-7.4 7.275-7.4.834 0 4.306.135 6.141 3.802h2.771c-1.436-3.667-4.671-6.078-8.91-6.078-6.373 0-9.743 5.261-9.743 9.71 0 4.856 3.503 9.743 9.744 9.743 5.005 0 7.642-3.123 8.875-5.873h-2.737zm15.252-13.58c-5.406 0-9.546 4.211-9.546 9.743 0 3.75 1.915 6.875 4.822 8.502-.351.139-.713.262-1.086.373 4.893 1.792 9.717 1.922 13.721-1.111 4.88-5.025 4.919-11.861.065-15.642a3.33 3.33 0 00-.367-.178c.365.602.678 1.233.931 1.888 1.363 3.532.969 7.724-2.597 11.354-.061-.06.117-.356.406-.837 1.049-1.744 3.567-5.932 1.536-10.265a11.117 11.117 0 00-1.23-2.32c-.36.006-.713.096-1.057.261-1.556-1.12-3.48-1.767-5.598-1.767zm6.495 3.768h.39l.135.39c-.373.952-1.9 3.07-3.772 4.206.678-.785 1.368-1.604 1.971-2.448a13.37 13.37 0 001.276-2.147zm-2.663-.383c-1.083-.706-2.387-1.11-3.832-1.11-4.105 0-7.074 3.26-7.074 7.47 0 3.4 1.935 6.157 4.841 7.093 1.696-1.336 2.94-3.332 3.599-6.318.402-2.95 1.303-5.505 2.466-7.135zm6.605 3.353a8.218 8.218 0 01-.766-.798l.049.84.105.047c.411.183.427.19.985.224-.089-.073-.133-.107-.165-.132a2.594 2.594 0 01-.208-.18zm.481 2.42c-.337-.306-.783-.71-1-1.136l-.153.726c.427.281.688.427 1.269.584.011.003.016-.01.022-.023l.009-.017-.147-.135zm-.887 1.354a4.502 4.502 0 01-.553-.81l-.219.632c.576.58.85.742 1.551.925a5.702 5.702 0 01-.779-.747zm-4.304 3.156c.196-.211.368-.397.524-.534l.284-1.18c-.367.516-1.385 1.537-1.967 2.12l-.238.24c-.485.49-.983.968-1.596 1.427 1.438-.393 2.345-1.373 2.993-2.073zm-3.35.158c2.492-.769 4.408-3.07 5.021-3.853l.141-1.299c-.696.886-1.966 2.373-2.732 3.134a16.51 16.51 0 01-2.43 2.018zm.634-2.537c2.56-1.461 4.144-3.83 4.653-4.744l-.198-1.005c-.48.864-1.468 2.315-2.127 3.192a18.215 18.215 0 01-2.328 2.557z"/></svg><svg viewBox="0 0 202 32" id="logo" xmlns="http://www.w3.org/2000/svg"><path fill-rule="evenodd" clip-rule="evenodd" d="M53.97.003c-12.697 0-18.357 7.637-18.357 16.053 0 8.396 6.523 15.94 18.357 15.94 12.532 0 18.505-7.543 18.505-15.94C72.475 7.64 66.502.003 53.97.003zm5.495 17.888c.22 5.45-1.177 10.955-3.988 11.585-2.977-.408-6.137-6.191-6.468-14.996-.202-5.116.68-10.807 3.785-11.974 2.61.482 6.321 5.913 6.67 15.385zM92.338.745H79.457v30.51h21.573v-3.522l-8.692.019V.745zM119.81 23.34h-9.684s-1.489 6.803-1.765 7.915h-3.748l6.872-30.51h17.09l6.78 30.51h-13.763l-1.782-7.915zm-.699-3.15l-3.473-15.423h-1.323l-3.473 15.422h8.269zM184.602.744h-16.244v30.51h12.881V20.45l1.728.166 4.759 10.64H201.6l-6.707-10.343-.533-.964c3.565-1.687 5.77-4.67 5.88-9.768.073-2.558-.698-5.19-2.591-6.952-2.906-2.71-7.234-2.607-11.074-2.515-.676.016-1.337.032-1.973.032zm.147 17.535s-2.793-.185-3.491-.315V3.21c6.137 0 6.137 5.134 6.137 7.025 0 4.579-2.646 8.045-2.646 8.045zm-28.152 12.975h-12.881V.745h12.881v30.51zM31.367 9.92c0-8.508-7.405-9.175-14.994-9.175H0v30.51h12.9V22.71c1.23.26 2.83.408 4.502.408 6.91 0 13.965-2.373 13.965-13.198zM16.373 20.208s-2.702-.149-3.473-.315V3.21c6.082 0 6.082 5.802 6.082 7.952 0 5.765-2.61 9.046-2.61 9.046z"/></svg><svg viewBox="0 0 180 48" id="polair" xmlns="http://www.w3.org/2000/svg"><g clip-path="url(#gclip0_1526_2821)"><path fill-rule="evenodd" clip-rule="evenodd" d="M24.079 24.042C24.079 18.27 27.915 13 36.485 13c8.489 0 12.57 5.27 12.57 11.042S44.974 35 36.485 35c-7.999 0-12.406-5.186-12.406-10.958zm13.467 9.201c1.878-.418 2.857-4.266 2.694-7.946-.245-6.525-2.775-10.206-4.49-10.54-2.121.836-2.693 4.684-2.53 8.197.164 6.023 2.286 10.038 4.326 10.29zM53.79 13.502h8.733v18.57H68.4v2.426H53.79V13.502zm20.813 15.559h6.53l1.224 5.437h9.305l-4.57-20.996H75.5l-4.653 20.996h2.53c.245-.753 1.225-5.437 1.225-5.437zm3.673-12.799l2.367 10.624h-5.632l2.367-10.624h.898zm35.669-2.76h11.019c.44 0 .899-.012 1.37-.024 2.585-.067 5.512-.143 7.445 1.697 1.306 1.255 1.796 3.011 1.796 4.768-.082 3.513-1.551 5.52-4 6.692l.327.67 4.571 7.11h-9.387l-3.265-7.362-1.143-.084v7.445h-8.733V13.502zm8.733 11.878c.49.084 2.367.251 2.367.251s1.796-2.426 1.796-5.52c0-1.34 0-4.853-4.163-4.853V25.38zm-25.384 9.118h8.734V13.502h-8.734v20.996zM11.101 13.502c5.142 0 10.12.502 10.12 6.274 0 7.445-4.815 9.118-9.467 9.118-1.143 0-2.204-.084-3.02-.251v5.855H0V13.502h11.1zM8.734 26.719c.49.083 2.367.25 2.367.25s1.795-2.258 1.795-6.19c0-1.505 0-5.437-4.08-5.437V26.72h-.082zm148.308-7.11H163v8.783h-5.958v6.106h-8.571v-6.106h-5.958v-8.784h5.958v-6.106h8.571v6.106z"/></g><defs><clipPath id="gclip0_1526_2821"><path transform="translate(0 13)" d="M0 0h163v22H0z"/></clipPath></defs></svg><svg viewBox="0 0 180 48" id="polair-group" xmlns="http://www.w3.org/2000/svg"><g clip-path="url(#hclip0_1526_2773)"><path fill-rule="evenodd" clip-rule="evenodd" d="M41.6 7.635c.985.411 1.678 1.196 2.08 2.092.401.86.584 1.831.584 2.803 0 1.644-.62 3.25-1.898 4.222a5.41 5.41 0 01-1.86.896c-.694.15-1.497.262-2.227.262h-.766c-.073 0-.155-.01-.237-.019a2.18 2.18 0 00-.238-.018h-.109v3.661h-3.248V7.374l.146-.038c.584-.112 1.241-.187 1.934-.261A45.75 45.75 0 0138.024 7c.365 0 .766.037 1.167.075.438.037.876.112 1.278.187.401.112.766.224 1.13.373zm-3.978 7.323c.402.038.876.038 1.278-.037.51-.075 2.08-.336 2.08-2.317 0-2.071-1.29-2.361-1.687-2.45a3.975 3.975 0 00-1.05-.127c-.157 0-.313.01-.458.02a5.332 5.332 0 01-.345.017c-.146 0-.474.037-.474.037v4.82s.547.037.656.037zM0 36.18V7.15h25.252v29.03l-12.626 4.745L0 36.18zm20.18-20.064a20.358 20.358 0 00-1.095-.336c-1.679-.41-3.284-.448-4.598-.112.51.374 1.058.972 1.496 1.756 1.168-.112 2.445.075 3.722.598.117.051.227.103.329.15.12.057.23.108.328.149l.766-1.756-.073-.038a4.821 4.821 0 00-.875-.41zM7.043 17.424h.11c.12 0 .266-.026.437-.056l.11-.019c.547-.074 1.24-.15 1.277-.15H9.962c.657 0 1.277.225 1.533.337.401.15.766.374 1.058.673.292.261.51.598.657 1.009.146.373.219.822.219 1.27 0 .523-.073 1.009-.256 1.457-.182.411-.401.822-.73 1.12l-.109.113.002.008c.04.206.226 1.16.837 1.897.22-.149.438-.298.657-.485.547-.449.949-1.046 1.277-1.719.329-.673.475-1.494.475-2.391a5.86 5.86 0 00-.402-2.167 4.233 4.233 0 00-1.13-1.607 5.004 5.004 0 00-1.753-.971c-.583-.187-1.605-.411-2.48-.411-1.388 0-2.665.112-3.212.224h-.183c-.291 0-1.058.075-1.642.224l-.11.038v13.338h2.117v-3.699c.365.112 1.095.299 2.08.448a9.263 9.263 0 01-.577-1.91l-.006-.032c-.474-.081-.871-.181-1.18-.259-.119-.03-.225-.057-.317-.078v-6.165c.037 0 .082-.009.128-.018.046-.01.091-.019.128-.019zM21.2 28.147l.037-.037h.036v-5.866h-4.05L16.42 24l2.956-.037v2.914l-.073.075c-.024.012-.045.024-.065.037-.04.025-.081.05-.154.075-.183.074-.438.15-.693.224-.256.075-.511.112-.803.15-1.679.223-3.941-.113-5.182-1.794-1.131-1.495-1.35-3.886-.547-5.53.11-.261.255-.486.438-.71-.475-.859-1.35-1.009-1.68-1.046-.838 1.196-1.35 2.653-1.35 4.073 0 2.989 1.46 5.38 3.905 6.463.913.411 2.007.598 3.139.598.948 0 1.934-.112 2.919-.41a8.035 8.035 0 001.131-.412l.17-.095.002-.001c.258-.145.487-.273.667-.427zm19.779 4.67l-1.168 2.653h3.211v2.055c-.146.075-.292.15-.474.187-.192.066-.412.102-.611.136l-.083.014a4.377 4.377 0 01-.693.074c-.12 0-.24.011-.35.022-.088.008-.168.016-.234.016-.584 0-1.13-.038-1.642-.15-.474-.112-.912-.261-1.277-.523-.547-.336-.985-.822-1.314-1.457-.328-.635-.474-1.383-.474-2.28 0-.746.11-1.419.328-2.017.22-.56.548-1.046.95-1.42.218-.186.437-.373.729-.523.255-.15.547-.261.84-.336.291-.075.62-.15.912-.187a7.552 7.552 0 012.882.224c.657.187 1.241.411 1.825.673l.182.075.95-2.915-.147-.074c-.766-.374-1.569-.598-2.445-.785a15.486 15.486 0 00-2.59-.224c-.475 0-.986.037-1.533.112a7.97 7.97 0 00-1.57.374 7.84 7.84 0 00-1.495.71 6.198 6.198 0 00-1.314 1.12c-.256.3-.511.636-.766.972-.22.373-.438.747-.62 1.195-.183.411-.293.897-.402 1.383-.11.486-.146 1.009-.146 1.569 0 1.158.182 2.204.51 3.101.33.897.84 1.681 1.533 2.354.402.374.803.71 1.277.971.475.262.95.486 1.46.636a10.95 10.95 0 003.065.448c.365 0 .73 0 1.168-.037.38-.033.758-.093 1.16-.157l.19-.03c.475-.112.95-.224 1.423-.411l.067-.026c.461-.182 1.014-.399 1.466-.684l.073-.038V32.93H40.98v-.112zm57.29-6.351c.402.112.767.224 1.132.373 1.022.412 1.679 1.159 2.08 2.055.401.822.584 1.831.584 2.803 0 1.644-.62 3.25-1.898 4.222a5.406 5.406 0 01-1.86.896c-.694.15-1.497.262-2.227.262h-.766a2.18 2.18 0 01-.237-.019 2.204 2.204 0 00-.237-.019h-.11v3.662h-3.247V26.578l.145-.037c.584-.113 1.241-.187 1.934-.262.694-.037 1.57-.075 2.263-.075.365 0 .766.038 1.168.075.438.037.875.112 1.277.187zm-2.846 7.697c.402.037.876.037 1.278-.038l.082-.017h.001c.58-.121 1.997-.417 1.997-2.3 0-2.07-1.29-2.36-1.687-2.45a3.975 3.975 0 00-1.05-.127c-.157 0-.313.01-.458.02a5.332 5.332 0 01-.345.017c-.146 0-.474.037-.474.037v4.82s.547.038.656.038zm-43.278-12.33c1.095 0 2.08-.187 2.956-.523.876-.374 1.605-.86 2.226-1.532.62-.635 1.058-1.457 1.386-2.354.329-.897.475-1.905.475-3.026 0-1.084-.146-2.092-.475-2.99-.328-.896-.766-1.68-1.386-2.353a6.821 6.821 0 00-2.226-1.532C54.226 7.15 53.24 7 52.146 7a8.43 8.43 0 00-2.846.486 6.445 6.445 0 00-2.226 1.457c-.62.635-1.095 1.42-1.423 2.354-.329.934-.511 1.98-.511 3.138s.182 2.205.51 3.139c.329.934.803 1.718 1.424 2.353.62.636 1.35 1.121 2.226 1.458.839.261 1.824.448 2.846.448zM48.57 14.36c0-.784.073-1.457.255-2.017.183-.56.402-1.009.73-1.383.328-.373.693-.635 1.131-.784.438-.187.95-.262 1.496-.262.62 0 1.168.112 1.606.337.438.224.84.523 1.131.934.292.373.511.859.657 1.42a7.09 7.09 0 01.22 1.793c0 .635-.074 1.233-.22 1.793a4.21 4.21 0 01-.657 1.42c-.292.374-.657.71-1.13.934-.439.224-.986.336-1.607.336-.547 0-1.058-.074-1.496-.261a3.447 3.447 0 01-1.13-.785c-.33-.373-.548-.822-.73-1.382-.183-.635-.256-1.308-.256-2.093zm15.91 4.185h4.16l-1.277 2.989h-6.13V7.149h3.247v11.396zm7.408 2.989l1.24-2.952h5.401l1.24 2.952h3.467l-6.13-14.385h-2.372l-6.13 14.385h3.284zm3.94-9.714l.475 1.42 1.095 2.652H74.26l1.094-2.615.475-1.457zm8.94-4.67h3.249v14.384h-3.248V7.149zm9.671 8.78l1.57.186 3.977 5.418H104l-4.379-5.604-.474-.486.105-.04c.264-.1.545-.206.77-.371a4.33 4.33 0 00.986-.86 3.3 3.3 0 00.657-1.232 5.474 5.474 0 00.255-1.607c0-.784-.146-1.457-.474-2.017-.329-.56-.73-1.01-1.278-1.346a4.144 4.144 0 00-.912-.448 8.792 8.792 0 00-1.058-.299c-.365-.075-.73-.112-1.131-.15-.365-.037-.73-.037-1.095-.037-.292 0-.657 0-1.058.038-.37 0-.74.032-1.14.066l-.101.008c-.438.038-.84.075-1.24.113a8.668 8.668 0 00-1.095.149l-.146.037v14.086h3.247V15.93zm3.358-2.504c-.256.15-.548.262-.913.3-.365.074-.73.074-1.058.074h-1.387v-3.475h.183c.146 0 .292 0 .438-.037h.51c.548 0 1.059 0 1.497.075.292.037.584.15.803.299.218.149.364.298.51.56.11.224.183.486.183.71 0 .41-.073.71-.183.971a3.944 3.944 0 01-.584.523zM56.52 34.571l-.106.04.475.523 4.379 5.604h-4.014l-3.978-5.417-1.57-.187v5.604H48.46V26.615l.146-.037a8.68 8.68 0 011.095-.15h.002c.4-.037.801-.074 1.239-.112l.1-.008c.4-.035.77-.066 1.14-.066.402-.038.767-.038 1.059-.038.364 0 .73 0 1.094.038.402.037.767.074 1.132.15.364.074.73.186 1.058.298.328.112.62.262.912.448.547.337.949.785 1.277 1.345.329.56.475 1.233.475 2.018 0 .598-.11 1.12-.256 1.607a3.301 3.301 0 01-.657 1.233c-.292.336-.62.635-.985.859-.225.164-.507.271-.77.37zm-.945-2.8c.11-.261.182-.56.182-.971a1.82 1.82 0 00-.146-.673 1.504 1.504 0 00-.51-.56 1.899 1.899 0 00-.803-.299c-.438-.075-.949-.075-1.496-.075h-.511c-.146.038-.292.038-.438.038h-.183v3.474h1.387c.329 0 .694 0 1.058-.074.365-.038.657-.15.913-.3.219-.149.401-.336.547-.56zm17.48-3.586a6.822 6.822 0 00-2.227-1.532c-.875-.374-1.86-.523-2.955-.523a8.431 8.431 0 00-2.847.485 6.445 6.445 0 00-2.226 1.458c-.62.635-1.095 1.42-1.423 2.353-.328.934-.51 1.98-.51 3.139 0 1.158.182 2.204.51 3.138.328.934.803 1.719 1.423 2.354s1.35 1.121 2.226 1.457c.84.336 1.825.486 2.847.486 1.094 0 2.08-.187 2.955-.523.876-.374 1.606-.86 2.226-1.532.62-.672 1.058-1.457 1.387-2.354.328-.897.474-1.905.474-3.026 0-1.084-.146-2.092-.474-2.99-.328-.933-.766-1.755-1.387-2.39zm-1.57 5.343c0 .635-.073 1.232-.219 1.793a4.212 4.212 0 01-.657 1.42c-.292.373-.656.71-1.13.934-.439.224-.986.336-1.606.336-.548 0-1.059-.075-1.497-.262a3.447 3.447 0 01-1.13-.784c-.33-.374-.548-.822-.73-1.383-.183-.56-.256-1.233-.256-2.017 0-.785.073-1.457.255-2.018.183-.56.402-1.009.73-1.382a2.413 2.413 0 011.131-.785c.438-.187.95-.261 1.497-.261.62 0 1.167.112 1.605.336.438.224.84.523 1.131.934.292.374.511.86.657 1.42.146.485.22 1.083.22 1.719zm13.903 3.026c.11-.337.183-.748.183-1.233v-8.93h3.102v9.08c0 .933-.146 1.755-.438 2.428a4.081 4.081 0 01-1.168 1.718 4.984 4.984 0 01-1.788 1.01 8.383 8.383 0 01-2.19.298c-.912 0-1.751-.075-2.48-.299a5.399 5.399 0 01-1.898-.971 3.948 3.948 0 01-1.168-1.607 5.918 5.918 0 01-.401-2.204V26.39h3.247v8.93c0 .897.22 1.606.62 2.017.402.411 1.095.636 2.044.636.401 0 .766-.038 1.095-.15.292-.075.547-.224.766-.448.22-.224.365-.486.474-.822z"/></g><defs><clipPath id="hclip0_1526_2773"><path transform="translate(0 7)" d="M0 0h104v34H0z"/></clipPath></defs></svg><svg viewBox="0 0 180 48" id="rada" xmlns="http://www.w3.org/2000/svg"><path fill-rule="evenodd" clip-rule="evenodd" d="M25.37 10H0v23.884h1.683l2.825-17.099 14.266-5.01 4.86 14.37-1.279 7.739h3.016V10zm56.314 5.396h4.147c2.81 0 4.908.538 6.294 1.614 1.39 1.072 2.083 2.71 2.083 4.902 0 2.222-.663 3.831-1.99 4.839-1.327 1.003-3.455 1.507-6.387 1.507h-4.147V15.396zM68.15 28.39l2.122 4.858c4.85 0 9.702.004 14.553.008h.011c6.07.004 12.143.01 18.218.007l2.113-4.629h12.392l2.02 4.629h7.333L115.754 10.44h-7.699l-7.323 14.1c.136-.783.2-1.61.2-2.476 0-2.29-.444-4.295-1.332-6.022-.888-1.727-2.157-3.053-3.81-3.987-1.065-.597-2.26-1.028-3.602-1.292-1.341-.264-3.132-.396-5.371-.396h-11.53v18.106L66.35 10.196H58.65L51.44 24.08a3.192 3.192 0 00-1.48-1.551c-.804-.411-1.985-.626-3.556-.646 2.088-.352 3.645-1.008 4.679-1.971 1.04-.964 1.556-2.231 1.556-3.816 0-1.062-.253-2.011-.76-2.838-.503-.827-1.225-1.467-2.152-1.922-.713-.348-1.542-.592-2.493-.744-.947-.152-2.338-.225-4.162-.225H30.62v22.88h6.294v-8.732h3.84c1.99 0 3.245.191 3.767.573.522.386.873 1.198 1.059 2.436l.434 3.038.02.173c.098.817.216 1.805.58 2.513h6.913l2.225-4.858H68.15zm47.321-4.159h-8.182l4.293-8.771 3.889 8.771zm-49.405-.25h-8.182l4.294-8.77 3.888 8.77zm-29.152-3.85v-5.337l4.04-.005c2.015 0 3.347.191 4.006.573.658.386.99 1.066.99 2.035 0 1.008-.356 1.712-1.068 2.118-.712.411-2.02.617-3.928.617h-4.04zm40.989 18.87c-.156.166-.24.42-.24.744 0 .244.06.577.23.773.078.097.259.244.585.244a.674.674 0 00.479-.166c.283-.254.292-.68.292-.87 0-.23-.034-.524-.224-.735-.166-.18-.356-.215-.542-.215-.17.005-.395.024-.58.225zm1.673-1.262c-.278.132-.473.176-.976.26h-.01a2 2 0 00-.463.121.96.96 0 00-.346.274 1.3 1.3 0 00-.244.622h.01c.229-.504.692-.592 1.024-.592.234 0 .517.039.766.274.186.171.376.489.376 1.022 0 .387-.107.744-.303.984-.19.234-.492.41-.975.41-.235 0-.547-.053-.82-.327-.366-.372-.42-.92-.42-1.282 0-.886.254-1.292.43-1.482.292-.314.678-.387.97-.44l.26-.05c.372-.07.506-.096.716-.186v.392h.005zM6.27 38.938c.078.132.122.327.126.494v.005H4.918a.926.926 0 01.185-.534.753.753 0 01.59-.279.64.64 0 01.577.313zm.107 1.976c.224-.162.366-.357.439-.592l-.395-.083a.856.856 0 01-.166.289c-.093.107-.268.234-.561.234-.332 0-.576-.151-.708-.474a1.353 1.353 0 01-.087-.529h1.966v-.097c0-.436-.161-1.375-1.171-1.375-.854 0-1.259.71-1.259 1.433 0 .382.088.724.327.998.234.27.537.397.917.397a1.2 1.2 0 00.698-.201zm-4.07-2.236v-.332H.206v.332h.849v2.383h.405v-2.383h.849zm7.25-.332l.567.939.59-.94h.405l-.785 1.229.927 1.487h-.488l-.678-1.096-.708 1.096h-.405l.903-1.4-.815-1.316h.488zm4.47 1.135v-1.136h-.405v2.716h.405v-1.248h1.254v1.248h.405v-2.715h-.405v1.135h-1.254zm6.187.225c0-.89-.43-1.062-.757-1.062-.322 0-.756.171-.756 1.062 0 .89.43 1.061.756 1.061.327-.005.757-.171.757-1.061zm-.757-1.414c.703 0 1.22.523 1.22 1.409 0 .89-.522 1.409-1.22 1.409-.702 0-1.22-.524-1.22-1.41 0-.885.523-1.408 1.22-1.408zm5.626 2.769V38.34h-1.63l-.005.303c-.029 1.365-.087 1.634-.166 1.776a.54.54 0 01-.41.284h-.043v.352h.02c.185 0 .604-.04.785-.568.083-.24.127-.601.17-1.815h.874v2.388h.405zm4.527-1.355c0-.89-.429-1.062-.756-1.062-.322 0-.756.171-.756 1.062 0 .89.43 1.061.756 1.061.327-.005.756-.171.756-1.061zm-.75-1.414c.702 0 1.219.523 1.219 1.409 0 .89-.522 1.409-1.22 1.409-.702 0-1.22-.524-1.22-1.41-.004-.885.518-1.408 1.22-1.408zm5.41.386v-.332h-1.64v2.715h.405v-2.383h1.235zm2.8-.332v1.629c0 .12-.002.159-.007.234l-.007.137c.073-.167.15-.274.223-.378l.03-.042 1.015-1.346v-.234h.405v2.715h-.405v-1.605c0-.098.005-.26.02-.386-.02.048-.059.136-.244.376l-1.03 1.35v.26h-.404V38.34h.405v.005zm4.694.748v-.748h-.405v.684c0 .309 0 .612.24.788.19.137.463.137.638.137.244 0 .396-.015.65-.044v1.145h.404V38.34h-.405v1.247c-.16.02-.4.04-.585.04-.186 0-.366 0-.464-.118-.08-.101-.076-.249-.074-.363l.001-.053zm6.045.338a1.107 1.107 0 00-.127-.495.637.637 0 00-.57-.313.753.753 0 00-.59.28.926.926 0 00-.186.532h1.473v-.004zm.42.89c-.073.235-.215.43-.44.592a1.2 1.2 0 01-.697.2c-.38 0-.683-.127-.917-.396-.24-.274-.327-.616-.327-.998 0-.724.405-1.433 1.259-1.433 1.01 0 1.17.94 1.17 1.375v.097h-1.966c-.005.181.025.372.088.529.132.323.376.474.708.474.292 0 .468-.127.56-.234a.857.857 0 00.167-.29l.395.084zm4.015-1.438c.068.102.127.259.147.41l.39-.063a1.315 1.315 0 00-.278-.621c-.19-.215-.44-.308-.737-.308-.434 0-.707.185-.893.44-.205.284-.283.611-.283.973 0 .46.142.896.405 1.14.156.142.4.265.742.265.292 0 .541-.093.732-.29.15-.16.268-.4.307-.66l-.38-.068a.914.914 0 01-.176.44.556.556 0 01-.474.225.597.597 0 01-.517-.274c-.034-.044-.175-.264-.175-.778 0-.22.029-.528.175-.768a.585.585 0 01.522-.303c.264 0 .42.132.493.24zm3.796.596c.356 0 .537-.073.654-.577l.013-.058c.03-.13.063-.275.148-.372.117-.137.288-.142.37-.142.04 0 .076.004.115.008l.012.002v.318c-.016-.004-.037-.002-.057-.001h-.026c-.058.005-.121.015-.17.079-.046.055-.07.179-.081.234l-.002.01-.04.191c-.058.299-.228.43-.409.46v.01c.258.02.361.196.424.367.048.133.084.252.114.353.033.115.06.206.091.268.05.098.098.113.2.113.035 0 .064 0 .098-.005v.323c-.059.01-.117.01-.176.01-.423 0-.48-.182-.578-.496l-.007-.023-.066-.21a1.566 1.566 0 00-.115-.314c-.107-.185-.263-.23-.483-.23h-.395v1.253h-.405v-2.715h.405v1.135h.366v.01zm4.874-.836c.327 0 .756.171.756 1.062 0 .89-.429 1.056-.756 1.061-.327 0-.756-.171-.756-1.061 0-.89.434-1.062.756-1.062zm1.225 1.057c0-.886-.518-1.41-1.22-1.41-.703 0-1.22.524-1.22 1.41 0 .885.517 1.409 1.22 1.409.698 0 1.22-.519 1.22-1.41zm4.303-.27a1.107 1.107 0 00-.127-.493.637.637 0 00-.57-.314.753.753 0 00-.591.28.926.926 0 00-.185.532h1.473v-.004zm.42.891c-.074.235-.215.43-.44.592a1.2 1.2 0 01-.697.2c-.38 0-.683-.127-.917-.396-.24-.274-.327-.616-.327-.998 0-.724.405-1.433 1.258-1.433 1.01 0 1.171.94 1.171 1.375v.097h-1.966c-.005.181.025.372.088.529.132.323.376.474.707.474.293 0 .469-.127.561-.234a.857.857 0 00.166-.29l.396.084zm6.723-1.678c.327 0 .756.171.756 1.062 0 .89-.43 1.056-.756 1.061-.322 0-.751-.171-.751-1.061 0-.89.429-1.062.75-1.062zm1.224 1.057c0-.886-.517-1.41-1.22-1.41-.702 0-1.224.524-1.22 1.41 0 .885.518 1.409 1.22 1.409.698 0 1.22-.519 1.22-1.41zm8.46-1.057c.328 0 .757.171.757 1.062 0 .89-.43 1.056-.756 1.061-.322 0-.752-.171-.752-1.061 0-.89.43-1.062.752-1.062zm1.225 1.057c0-.886-.517-1.41-1.22-1.41-.702 0-1.224.524-1.22 1.41 0 .885.518 1.409 1.22 1.409.698 0 1.22-.519 1.22-1.41zm2.957.288c0 .137.02.358.19.548.151.167.347.23.517.23a.614.614 0 00.532-.318c.127-.21.166-.504.166-.748 0-.455-.112-.67-.161-.744a.596.596 0 00-.532-.303.637.637 0 00-.488.215.805.805 0 00-.224.558v.562zm-.405 1.957v-3.6h.37v.508l.006-.005c.107-.254.36-.557.805-.557.336 0 .58.122.746.313.234.26.342.69.342 1.081 0 .362-.088.758-.288 1.023a.957.957 0 01-.8.406c-.43 0-.654-.23-.766-.48h-.015v1.311h-.4zm5.362-.142c.156-.147.23-.318.288-.484l1.068-2.97h-.37l-.727 2.09-.703-2.09h-.468l.951 2.667-.034.088c-.083.25-.151.391-.254.474-.102.088-.205.093-.302.093-.108 0-.18-.01-.293-.039v.313c.107.04.234.054.341.054a.69.69 0 00.503-.196zm4.24-2.984c-.015.401-.064 1.062-.24 1.526a4.702 4.702 0 01-.17.382h1.244v-2.055h-.83l-.004.147zm1.24-.47v2.383h.277v1.062h-.37v-.73h-1.801v.73h-.37v-1.062h.2c.092-.132.18-.294.253-.484.195-.5.22-1.033.234-1.654l.005-.245h1.571zm3.751.294c.327 0 .756.171.756 1.062-.005.89-.434 1.056-.756 1.061-.322 0-.751-.171-.751-1.061 0-.89.429-1.062.751-1.062zm1.22 1.057c0-.886-.517-1.41-1.22-1.41s-1.22.524-1.22 1.41c0 .885.517 1.409 1.22 1.409.698 0 1.22-.519 1.22-1.41zm2.961 1.032h.849c.195 0 .342-.054.425-.132a.459.459 0 00.127-.328.426.426 0 00-.166-.347c-.132-.103-.322-.113-.425-.113h-.81v.92zm.005-1.252h.752c.126 0 .292-.01.409-.138a.451.451 0 00.108-.308.313.313 0 00-.117-.259c-.113-.098-.239-.098-.361-.098h-.791v.803zm.791-1.136c.219 0 .448.01.629.118a.572.572 0 01.288.523.591.591 0 01-.181.455.713.713 0 01-.351.172v.01a.825.825 0 01.503.215c.053.053.18.2.18.464a.75.75 0 01-.283.602c-.205.162-.439.166-.659.166h-1.332v-2.715h1.206v-.01zm4.205 1.502c.151-.078.395-.132.82-.132h.341v.132c0 .191-.078.44-.214.612a.848.848 0 01-.644.303.651.651 0 01-.386-.102.436.436 0 01-.195-.362c0-.137.054-.333.278-.45zm.503-1.55c-.591 0-1.03.156-1.147.738l.386.064c.063-.44.531-.475.756-.475.19 0 .424.01.561.196.098.127.107.308.107.45v.113h-.351c-.41 0-.839.005-1.166.23a.789.789 0 00-.366.685c0 .283.127.47.244.577.132.122.346.24.693.24.639 0 .873-.402.946-.558.005.132.02.308.049.504h.425a2.506 2.506 0 01-.069-.568v-1.042c0-.352-.005-.724-.297-.959-.239-.19-.591-.195-.771-.195zm4.201.049v1.135h1.253v-1.136h.401v2.716h-.401v-1.248h-1.253v1.248h-.405v-2.715h.405zm4.83 1.629V38.34h-.405v2.715h.405v-.26l1.029-1.35c.186-.24.225-.328.244-.376a3.967 3.967 0 00-.019.386v1.605h.405v-2.715h-.405v.234l-1.015 1.346-.03.042c-.074.103-.151.21-.224.378l.008-.137c.005-.075.007-.113.007-.234zm6.177-.543a1.11 1.11 0 00-.127-.495.64.64 0 00-.576-.313.753.753 0 00-.59.28.922.922 0 00-.186.532h1.479v-.004zm.419.89c-.073.235-.214.43-.439.592-.21.142-.434.2-.698.2-.38 0-.683-.127-.917-.396-.239-.274-.327-.616-.327-.998 0-.724.405-1.433 1.259-1.433 1.01 0 1.171.94 1.171 1.375v.097h-1.966a1.34 1.34 0 00.088.529c.131.323.375.474.707.474.293 0 .468-.127.561-.234a.857.857 0 00.166-.29l.395.084zM3.635 33.884L5.83 20.596l2.933 8.45-.8 4.838H3.634zm13.47-5.48l-.907 5.48h4.206l1.161-7.035-4.46 1.555zm-7.186 5.48l.522-3.156 4.591-1.6-.785 4.756H9.919z"/></svg><svg viewBox="0 0 180 48" id="radax" xmlns="http://www.w3.org/2000/svg"><g clip-path="url(#jclip0_1526_2837)"><path fill-rule="evenodd" clip-rule="evenodd" d="M8.643 14.245v11.399h5.365v-11.4H8.643zM22.693 37H14.05l-2.937-8.154H8.686L8.643 37H0V11h18.649c1.235 0 2.214.384 2.938 1.11.724.726 1.064 1.708 1.064 2.946v9.734c0 1.067-.298 1.921-.809 2.604-.553.683-1.277 1.153-2.171 1.324L22.694 37zm10.39-2.86h4.3v-9.265h-4.3v9.265zM45.345 37H29.123c-1.235 0-2.214-.384-2.938-1.11-.724-.726-1.107-1.708-1.107-2.946v-7.727c0-.94.298-1.75.894-2.348.596-.598 1.363-.897 2.342-.897h9.069V19.07H29.08v-2.86h13.072c.936 0 1.703.299 2.299.896.596.598.894 1.366.894 2.348V37zm10.772-2.86V19.069h4.3v15.07h-4.3zM52.115 37h16.307V11H60.46v5.209h-9.154c-.98 0-1.746.298-2.342.896-.596.598-.894 1.409-.894 2.348v13.491c0 1.238.383 2.22 1.107 2.946S50.88 37 52.115 37zm54.158-11.527L112.446 37h-7.961l-3.194-6.062L96.863 37h-3.576l6.429-8.923-6.344-11.868h7.962l3.406 6.404 4.598-6.404H113l-6.727 9.264zm-22.95 8.667h-4.3v-9.265h4.3v9.265zM75.064 37h16.223V19.453c0-.982-.298-1.75-.895-2.348-.596-.598-1.362-.896-2.299-.896h-13.07v2.86h8.302v2.903h-9.07c-.979 0-1.745.299-2.341.897-.596.597-.894 1.409-.894 2.348v7.727c0 1.238.383 2.22 1.107 2.946S73.829 37 75.064 37z"/></g><defs><clipPath id="jclip0_1526_2837"><path transform="translate(0 11)" d="M0 0h113v26H0z"/></clipPath></defs></svg><svg viewBox="0 0 18 18" id="search-icon" xmlns="http://www.w3.org/2000/svg"><path d="M7.784.25C3.632.25.25 3.632.25 7.784c0 4.153 3.382 7.535 7.534 7.535a7.498 7.498 0 004.785-1.717h.008l3.926 3.934a.731.731 0 001.033 0 .722.722 0 000-1.025l-3.941-3.934v-.008a7.504 7.504 0 001.724-4.785c0-4.152-3.382-7.534-7.535-7.534zm0 1.458a6.065 6.065 0 016.076 6.076 6.065 6.065 0 01-6.076 6.076 6.065 6.065 0 01-6.076-6.076 6.065 6.065 0 016.076-6.076z"/><path fill-rule="evenodd" clip-rule="evenodd" d="M.188 7.784c0-4.187 3.41-7.596 7.596-7.596h.074c4.153.04 7.523 3.434 7.523 7.596a7.565 7.565 0 01-1.706 4.785l3.906 3.898c.309.309.309.805 0 1.114a.794.794 0 01-1.122 0l-3.89-3.898a7.56 7.56 0 01-4.785 1.698c-4.187 0-7.596-3.41-7.596-7.597zM7.75.313C3.648.33.312 3.678.312 7.784c0 4.118 3.354 7.472 7.472 7.472 1.8 0 3.454-.637 4.746-1.702l.017-.014h.056l3.945 3.952c.26.26.684.26.944 0a.66.66 0 000-.937l-3.974-3.966.014-.027.001-.005a.063.063 0 01.013-.027 7.442 7.442 0 001.71-4.746c0-4.118-3.354-7.471-7.472-7.471h-.033zm.033 1.458a6.003 6.003 0 00-6.013 6.013 6.003 6.003 0 006.013 6.014 6.003 6.003 0 006.014-6.014 6.003 6.003 0 00-6.014-6.013zM1.646 7.784a6.128 6.128 0 016.138-6.138 6.128 6.128 0 016.139 6.138 6.128 6.128 0 01-6.139 6.139 6.128 6.128 0 01-6.138-6.139z"/></svg></svg>