<?xml version="1.0" encoding="utf-8"?><svg viewBox="0 0 202 32" xmlns="http://www.w3.org/2000/svg" xmlns:xlink="http://www.w3.org/1999/xlink"><style>:root>svg{display:none}:root>svg:target{display:block}</style><svg viewBox="0 0 17 14" id="email-icon" xmlns="http://www.w3.org/2000/svg"><path d="M2 1a1 1 0 00-1 1v10a1 1 0 001 1h13a1 1 0 001-1V2a1 1 0 00-1-1H2zm5.9 7.175a1.005 1.005 0 001.2 0l.733-.55L15 11.5v.5H2v-.5l5.167-3.875.733.55zm.6-.8L2 2.5V2h13v.5L8.5 7.375zM2 3.75L6.333 7 2 10.25v-6.5zm13 6.5L10.667 7 15 3.75v6.5z"/><path fill-rule="evenodd" clip-rule="evenodd" d="M2 1.1a.9.9 0 00-.9.9v10a.9.9 0 00.9.9h13a.9.9 0 00.9-.9V2a.9.9 0 00-.9-.9H2zM.9 2A1.1 1.1 0 012 .9h13A1.1 1.1 0 0116.1 2v10a1.1 1.1 0 01-1.1 1.1H2A1.1 1.1 0 01.9 12V2zm1-.1h13.2v.65L8.5 7.5 1.9 2.55V1.9zm.2.2v.35l6.4 4.8 6.4-4.8V2.1H2.1zm-.2 1.45L6.5 7l-4.6 3.45v-6.9zm13.2 0v6.9L10.5 7l4.6-3.45zm-13 .4v6.1L6.167 7 2.1 3.95zM10.833 7l4.067 3.05v-6.1L10.833 7zm-3.666.5l.793.595a.906.906 0 001.08 0l.793-.595 5.267 3.95v.65H1.9v-.65L7.167 7.5zm0 .25L2.1 11.55v.35h12.8v-.35l-5.067-3.8-.673.505a1.106 1.106 0 01-1.32 0l-.673-.505z"/></svg><svg viewBox="0 0 202 32" id="logo" xmlns="http://www.w3.org/2000/svg"><path fill-rule="evenodd" clip-rule="evenodd" d="M53.97.003c-12.697 0-18.357 7.637-18.357 16.053 0 8.396 6.523 15.94 18.357 15.94 12.532 0 18.505-7.543 18.505-15.94C72.475 7.64 66.502.003 53.97.003zm5.495 17.888c.22 5.45-1.177 10.955-3.988 11.585-2.977-.408-6.137-6.191-6.468-14.996-.202-5.116.68-10.807 3.785-11.974 2.61.482 6.321 5.913 6.67 15.385zM92.338.745H79.457v30.51h21.573v-3.522l-8.692.019V.745zM119.81 23.34h-9.684s-1.489 6.803-1.765 7.915h-3.748l6.872-30.51h17.09l6.78 30.51h-13.763l-1.782-7.915zm-.699-3.15l-3.473-15.423h-1.323l-3.473 15.422h8.269zM184.602.744h-16.244v30.51h12.881V20.45l1.728.166 4.759 10.64H201.6l-6.707-10.343-.533-.964c3.565-1.687 5.77-4.67 5.88-9.768.073-2.558-.698-5.19-2.591-6.952-2.906-2.71-7.234-2.607-11.074-2.515-.676.016-1.337.032-1.973.032zm.147 17.535s-2.793-.185-3.491-.315V3.21c6.137 0 6.137 5.134 6.137 7.025 0 4.579-2.646 8.045-2.646 8.045zm-28.152 12.975h-12.881V.745h12.881v30.51zM31.367 9.92c0-8.508-7.405-9.175-14.994-9.175H0v30.51h12.9V22.71c1.23.26 2.83.408 4.502.408 6.91 0 13.965-2.373 13.965-13.198zM16.373 20.208s-2.702-.149-3.473-.315V3.21c6.082 0 6.082 5.802 6.082 7.952 0 5.765-2.61 9.046-2.61 9.046z"/></svg><svg viewBox="0 0 18 18" id="search-icon" xmlns="http://www.w3.org/2000/svg"><path d="M7.784.25C3.632.25.25 3.632.25 7.784c0 4.153 3.382 7.535 7.534 7.535a7.498 7.498 0 004.785-1.717h.008l3.926 3.934a.731.731 0 001.033 0 .722.722 0 000-1.025l-3.941-3.934v-.008a7.504 7.504 0 001.724-4.785c0-4.152-3.382-7.534-7.535-7.534zm0 1.458a6.065 6.065 0 016.076 6.076 6.065 6.065 0 01-6.076 6.076 6.065 6.065 0 01-6.076-6.076 6.065 6.065 0 016.076-6.076z"/><path fill-rule="evenodd" clip-rule="evenodd" d="M.188 7.784c0-4.187 3.41-7.596 7.596-7.596h.074c4.153.04 7.523 3.434 7.523 7.596a7.565 7.565 0 01-1.706 4.785l3.906 3.898c.309.309.309.805 0 1.114a.794.794 0 01-1.122 0l-3.89-3.898a7.56 7.56 0 01-4.785 1.698c-4.187 0-7.596-3.41-7.596-7.597zM7.75.313C3.648.33.312 3.678.312 7.784c0 4.118 3.354 7.472 7.472 7.472 1.8 0 3.454-.637 4.746-1.702l.017-.014h.056l3.945 3.952c.26.26.684.26.944 0a.66.66 0 000-.937l-3.974-3.966.014-.027.001-.005a.063.063 0 01.013-.027 7.442 7.442 0 001.71-4.746c0-4.118-3.354-7.471-7.472-7.471h-.033zm.033 1.458a6.003 6.003 0 00-6.013 6.013 6.003 6.003 0 006.013 6.014 6.003 6.003 0 006.014-6.014 6.003 6.003 0 00-6.014-6.013zM1.646 7.784a6.128 6.128 0 016.138-6.138 6.128 6.128 0 016.139 6.138 6.128 6.128 0 01-6.139 6.139 6.128 6.128 0 01-6.138-6.139z"/></svg></svg>